solid xxx STL
  facet normal  -0.000000e+000  0.000000e+000 -1.000000e+000
    outer loop
      vertex -5.724142e+001  1.629000e+002  4.510000e+001
      vertex  4.973799e-014  1.629000e+002  4.510000e+001
      vertex  1.421085e-014  1.615000e+002  4.510000e+001
    endloop
  endfacet
  facet normal  -0.000000e+000  0.000000e+000 -9.999999e-001
    outer loop
      vertex -6.000000e+001  1.679000e+002  4.510000e+001
      vertex -5.724142e+001  1.629000e+002  4.510000e+001
      vertex -6.000000e+001  1.600000e+002  4.510000e+001
    endloop
  endfacet
  facet normal  0.000000e+000  0.000000e+000 -1.000000e+000
    outer loop
      vertex -6.000000e+001  1.600000e+002  4.510000e+001
      vertex -5.724142e+001  1.629000e+002  4.510000e+001
      vertex  1.421085e-014  1.615000e+002  4.510000e+001
    endloop
  endfacet
  facet normal  0.000000e+000  0.000000e+000 -1.000000e+000
    outer loop
      vertex -6.000000e+001  1.600000e+002  4.510000e+001
      vertex  1.421085e-014  1.615000e+002  4.510000e+001
      vertex -1.500000e+000  1.600000e+002  4.510000e+001
    endloop
  endfacet
  facet normal  0.000000e+000  0.000000e+000 -9.999999e-001
    outer loop
      vertex  6.000000e+001  1.600000e+002  4.510000e+001
      vertex  5.724142e+001  1.629000e+002  4.510000e+001
      vertex  6.000000e+001  1.679000e+002  4.510000e+001
    endloop
  endfacet
  facet normal  0.000000e+000  0.000000e+000 -1.000000e+000
    outer loop
      vertex  6.000000e+001  1.679000e+002  4.510000e+001
      vertex  5.724142e+001  1.629000e+002  4.510000e+001
      vertex  5.330208e+001  1.668393e+002  4.510000e+001
    endloop
  endfacet
  facet normal  0.000000e+000  0.000000e+000 -1.000000e+000
    outer loop
      vertex  6.000000e+001  1.679000e+002  4.510000e+001
      vertex  5.330208e+001  1.668393e+002  4.510000e+001
      vertex  5.330208e+001  1.679000e+002  4.510000e+001
    endloop
  endfacet
  facet normal  0.000000e+000  0.000000e+000 -1.000000e+000
    outer loop
      vertex  6.000000e+001  1.600000e+002  4.510000e+001
      vertex  1.500000e+000  1.600000e+002  4.510000e+001
      vertex  5.724142e+001  1.629000e+002  4.510000e+001
    endloop
  endfacet
  facet normal  0.000000e+000  0.000000e+000 -1.000000e+000
    outer loop
      vertex  5.724142e+001  1.629000e+002  4.510000e+001
      vertex  1.500000e+000  1.600000e+002  4.510000e+001
      vertex  1.421085e-014  1.615000e+002  4.510000e+001
    endloop
  endfacet
  facet normal  0.000000e+000  0.000000e+000 -1.000000e+000
    outer loop
      vertex  5.724142e+001  1.629000e+002  4.510000e+001
      vertex  1.421085e-014  1.615000e+002  4.510000e+001
      vertex  4.973799e-014  1.629000e+002  4.510000e+001
    endloop
  endfacet
  facet normal  0.000000e+000  0.000000e+000 -1.000000e+000
    outer loop
      vertex -5.330208e+001  1.668393e+002  4.510000e+001
      vertex -5.724142e+001  1.629000e+002  4.510000e+001
      vertex -5.330208e+001  1.679000e+002  4.510000e+001
    endloop
  endfacet
  facet normal  -0.000000e+000  0.000000e+000 -1.000000e+000
    outer loop
      vertex -5.330208e+001  1.679000e+002  4.510000e+001
      vertex -5.724142e+001  1.629000e+002  4.510000e+001
      vertex -6.000000e+001  1.679000e+002  4.510000e+001
    endloop
  endfacet
  facet normal  0.000000e+000  0.000000e+000  1.000000e+000
    outer loop
      vertex -6.000000e+001  1.600000e+002  8.100000e+001
      vertex -1.500000e+000  1.600000e+002  8.100000e+001
      vertex -6.000000e+001  1.630000e+002  8.100000e+001
    endloop
  endfacet
  facet normal  0.000000e+000  0.000000e+000  1.000000e+000
    outer loop
      vertex -6.000000e+001  1.630000e+002  8.100000e+001
      vertex -1.500000e+000  1.600000e+002  8.100000e+001
      vertex  1.421085e-014  1.615000e+002  8.100000e+001
    endloop
  endfacet
  facet normal  0.000000e+000  -0.000000e+000  1.000000e+000
    outer loop
      vertex -6.000000e+001  1.630000e+002  8.100000e+001
      vertex  1.421085e-014  1.615000e+002  8.100000e+001
      vertex  6.000000e+001  1.630000e+002  8.100000e+001
    endloop
  endfacet
  facet normal  0.000000e+000  -0.000000e+000  1.000000e+000
    outer loop
      vertex  1.421085e-014  1.615000e+002  8.100000e+001
      vertex  1.500000e+000  1.600000e+002  8.100000e+001
      vertex  6.000000e+001  1.630000e+002  8.100000e+001
    endloop
  endfacet
  facet normal  0.000000e+000  0.000000e+000  1.000000e+000
    outer loop
      vertex  6.000000e+001  1.630000e+002  8.100000e+001
      vertex  1.500000e+000  1.600000e+002  8.100000e+001
      vertex  6.000000e+001  1.600000e+002  8.100000e+001
    endloop
  endfacet
  facet normal  0.000000e+000 -1.000000e+000  0.000000e+000
    outer loop
      vertex  1.500000e+000  1.600000e+002  4.510000e+001
      vertex  6.000000e+001  1.600000e+002  4.510000e+001
      vertex  1.500000e+000  1.600000e+002  6.255000e+001
    endloop
  endfacet
  facet normal  0.000000e+000 -1.000000e+000  0.000000e+000
    outer loop
      vertex  1.500000e+000  1.600000e+002  6.255000e+001
      vertex  6.000000e+001  1.600000e+002  4.510000e+001
      vertex  6.000000e+001  1.600000e+002  6.255000e+001
    endloop
  endfacet
  facet normal  0.000000e+000 -1.000000e+000  0.000000e+000
    outer loop
      vertex  1.500000e+000  1.600000e+002  6.555000e+001
      vertex  6.000000e+001  1.600000e+002  6.555000e+001
      vertex  1.500000e+000  1.600000e+002  8.100000e+001
    endloop
  endfacet
  facet normal  0.000000e+000 -1.000000e+000  0.000000e+000
    outer loop
      vertex  1.500000e+000  1.600000e+002  8.100000e+001
      vertex  6.000000e+001  1.600000e+002  6.555000e+001
      vertex  6.000000e+001  1.600000e+002  8.100000e+001
    endloop
  endfacet
  facet normal  0.000000e+000 -1.000000e+000  0.000000e+000
    outer loop
      vertex -6.000000e+001  1.600000e+002  4.510000e+001
      vertex -1.500000e+000  1.600000e+002  4.510000e+001
      vertex -6.000000e+001  1.600000e+002  6.255000e+001
    endloop
  endfacet
  facet normal  0.000000e+000 -1.000000e+000  0.000000e+000
    outer loop
      vertex -6.000000e+001  1.600000e+002  6.255000e+001
      vertex -1.500000e+000  1.600000e+002  4.510000e+001
      vertex -1.500000e+000  1.600000e+002  6.255000e+001
    endloop
  endfacet
  facet normal  0.000000e+000 -1.000000e+000  0.000000e+000
    outer loop
      vertex -6.000000e+001  1.600000e+002  6.555000e+001
      vertex -1.500000e+000  1.600000e+002  6.555000e+001
      vertex -6.000000e+001  1.600000e+002  8.100000e+001
    endloop
  endfacet
  facet normal  0.000000e+000 -1.000000e+000  0.000000e+000
    outer loop
      vertex -6.000000e+001  1.600000e+002  8.100000e+001
      vertex -1.500000e+000  1.600000e+002  6.555000e+001
      vertex -1.500000e+000  1.600000e+002  8.100000e+001
    endloop
  endfacet
  facet normal  -0.000000e+000 -7.071068e-001 -7.071068e-001
    outer loop
      vertex  0.000000e+000  1.615000e+002  6.405000e+001
      vertex  6.000000e+001  1.615000e+002  6.405000e+001
      vertex  1.500000e+000  1.600000e+002  6.555000e+001
    endloop
  endfacet
  facet normal  0.000000e+000 -7.071068e-001 -7.071068e-001
    outer loop
      vertex  1.500000e+000  1.600000e+002  6.555000e+001
      vertex  6.000000e+001  1.615000e+002  6.405000e+001
      vertex  6.000000e+001  1.600000e+002  6.555000e+001
    endloop
  endfacet
  facet normal  -0.000000e+000 -7.071068e-001 -7.071068e-001
    outer loop
      vertex -6.000000e+001  1.615000e+002  6.405000e+001
      vertex  0.000000e+000  1.615000e+002  6.405000e+001
      vertex -6.000000e+001  1.600000e+002  6.555000e+001
    endloop
  endfacet
  facet normal  0.000000e+000 -7.071068e-001 -7.071068e-001
    outer loop
      vertex -6.000000e+001  1.600000e+002  6.555000e+001
      vertex  0.000000e+000  1.615000e+002  6.405000e+001
      vertex -1.500000e+000  1.600000e+002  6.555000e+001
    endloop
  endfacet
  facet normal  0.000000e+000 -7.071077e-001  7.071059e-001
    outer loop
      vertex  0.000000e+000  1.615000e+002  6.405000e+001
      vertex  1.500000e+000  1.600000e+002  6.255000e+001
      vertex  6.000000e+001  1.615000e+002  6.405000e+001
    endloop
  endfacet
  facet normal  0.000000e+000 -7.071077e-001  7.071059e-001
    outer loop
      vertex  6.000000e+001  1.615000e+002  6.405000e+001
      vertex  1.500000e+000  1.600000e+002  6.255000e+001
      vertex  6.000000e+001  1.600000e+002  6.255000e+001
    endloop
  endfacet
  facet normal  0.000000e+000 -7.071077e-001  7.071059e-001
    outer loop
      vertex -6.000000e+001  1.615000e+002  6.405000e+001
      vertex -6.000000e+001  1.600000e+002  6.255000e+001
      vertex  0.000000e+000  1.615000e+002  6.405000e+001
    endloop
  endfacet
  facet normal  0.000000e+000 -7.071077e-001  7.071059e-001
    outer loop
      vertex  0.000000e+000  1.615000e+002  6.405000e+001
      vertex -6.000000e+001  1.600000e+002  6.255000e+001
      vertex -1.500000e+000  1.600000e+002  6.255000e+001
    endloop
  endfacet
  facet normal  7.071067e-001 -7.071067e-001  0.000000e+000
    outer loop
      vertex  0.000000e+000  1.615000e+002  6.405000e+001
      vertex -1.500000e+000  1.600000e+002  6.255000e+001
      vertex  1.421085e-014  1.615000e+002  4.510000e+001
    endloop
  endfacet
  facet normal  7.071068e-001 -7.071068e-001  0.000000e+000
    outer loop
      vertex  1.421085e-014  1.615000e+002  4.510000e+001
      vertex -1.500000e+000  1.600000e+002  6.255000e+001
      vertex -1.500000e+000  1.600000e+002  4.510000e+001
    endloop
  endfacet
  facet normal  7.071068e-001 -7.071068e-001  0.000000e+000
    outer loop
      vertex  1.421085e-014  1.615000e+002  8.100000e+001
      vertex -1.500000e+000  1.600000e+002  8.100000e+001
      vertex  0.000000e+000  1.615000e+002  6.405000e+001
    endloop
  endfacet
  facet normal  7.071068e-001 -7.071068e-001  0.000000e+000
    outer loop
      vertex  0.000000e+000  1.615000e+002  6.405000e+001
      vertex -1.500000e+000  1.600000e+002  8.100000e+001
      vertex -1.500000e+000  1.600000e+002  6.555000e+001
    endloop
  endfacet
  facet normal -7.071067e-001 -7.071067e-001 -5.302685e-016
    outer loop
      vertex  0.000000e+000  1.615000e+002  6.405000e+001
      vertex  1.421085e-014  1.615000e+002  4.510000e+001
      vertex  1.500000e+000  1.600000e+002  6.255000e+001
    endloop
  endfacet
  facet normal -7.071068e-001 -7.071068e-001  -0.000000e+000
    outer loop
      vertex  1.500000e+000  1.600000e+002  6.255000e+001
      vertex  1.421085e-014  1.615000e+002  4.510000e+001
      vertex  1.500000e+000  1.600000e+002  4.510000e+001
    endloop
  endfacet
  facet normal -7.071068e-001 -7.071068e-001  5.928374e-016
    outer loop
      vertex  1.421085e-014  1.615000e+002  8.100000e+001
      vertex  0.000000e+000  1.615000e+002  6.405000e+001
      vertex  1.500000e+000  1.600000e+002  8.100000e+001
    endloop
  endfacet
  facet normal -7.071068e-001 -7.071068e-001  -0.000000e+000
    outer loop
      vertex  1.500000e+000  1.600000e+002  8.100000e+001
      vertex  0.000000e+000  1.615000e+002  6.405000e+001
      vertex  1.500000e+000  1.600000e+002  6.555000e+001
    endloop
  endfacet
  facet normal  1.000000e+000  -0.000000e+000  0.000000e+000
    outer loop
      vertex  6.000000e+001  1.630000e+002  8.100000e+001
      vertex  6.000000e+001  1.600000e+002  8.100000e+001
      vertex  6.000000e+001  1.679000e+002  8.000000e+001
    endloop
  endfacet
  facet normal  1.000000e+000  0.000000e+000  -0.000000e+000
    outer loop
      vertex  6.000000e+001  1.630000e+002  8.100000e+001
      vertex  6.000000e+001  1.679000e+002  8.000000e+001
      vertex  6.000000e+001  1.921000e+002  8.000000e+001
    endloop
  endfacet
  facet normal  1.000000e+000  0.000000e+000  -0.000000e+000
    outer loop
      vertex  6.000000e+001  1.630000e+002  8.100000e+001
      vertex  6.000000e+001  1.921000e+002  8.000000e+001
      vertex  6.000000e+001  2.000000e+002  8.300000e+001
    endloop
  endfacet
  facet normal  1.000000e+000  0.000000e+000  0.000000e+000
    outer loop
      vertex  6.000000e+001  1.630000e+002  8.100000e+001
      vertex  6.000000e+001  2.000000e+002  8.300000e+001
      vertex  6.000000e+001  1.630000e+002  8.300000e+001
    endloop
  endfacet
  facet normal  1.000000e+000  0.000000e+000  0.000000e+000
    outer loop
      vertex  6.000000e+001  1.921000e+002  8.000000e+001
      vertex  6.000000e+001  1.921000e+002  6.510000e+001
      vertex  6.000000e+001  2.000000e+002  8.300000e+001
    endloop
  endfacet
  facet normal  1.000000e+000  0.000000e+000  0.000000e+000
    outer loop
      vertex  6.000000e+001  2.000000e+002  8.300000e+001
      vertex  6.000000e+001  1.921000e+002  6.510000e+001
      vertex  6.000000e+001  2.000000e+002  6.510000e+001
    endloop
  endfacet
  facet normal  1.000000e+000  0.000000e+000  0.000000e+000
    outer loop
      vertex  6.000000e+001  1.679000e+002  4.510000e+001
      vertex  6.000000e+001  1.679000e+002  8.000000e+001
      vertex  6.000000e+001  1.615000e+002  6.405000e+001
    endloop
  endfacet
  facet normal  1.000000e+000  0.000000e+000  -0.000000e+000
    outer loop
      vertex  6.000000e+001  1.615000e+002  6.405000e+001
      vertex  6.000000e+001  1.679000e+002  8.000000e+001
      vertex  6.000000e+001  1.600000e+002  8.100000e+001
    endloop
  endfacet
  facet normal  1.000000e+000  0.000000e+000  0.000000e+000
    outer loop
      vertex  6.000000e+001  1.615000e+002  6.405000e+001
      vertex  6.000000e+001  1.600000e+002  8.100000e+001
      vertex  6.000000e+001  1.600000e+002  6.555000e+001
    endloop
  endfacet
  facet normal  9.999999e-001  0.000000e+000  0.000000e+000
    outer loop
      vertex  6.000000e+001  1.600000e+002  6.255000e+001
      vertex  6.000000e+001  1.600000e+002  4.510000e+001
      vertex  6.000000e+001  1.615000e+002  6.405000e+001
    endloop
  endfacet
  facet normal  1.000000e+000  0.000000e+000  0.000000e+000
    outer loop
      vertex  6.000000e+001  1.615000e+002  6.405000e+001
      vertex  6.000000e+001  1.600000e+002  4.510000e+001
      vertex  6.000000e+001  1.679000e+002  4.510000e+001
    endloop
  endfacet
  facet normal -1.000000e+000  0.000000e+000  0.000000e+000
    outer loop
      vertex -6.000000e+001  1.630000e+002  8.100000e+001
      vertex -6.000000e+001  1.630000e+002  8.300000e+001
      vertex -6.000000e+001  2.000000e+002  8.300000e+001
    endloop
  endfacet
  facet normal -1.000000e+000  0.000000e+000  0.000000e+000
    outer loop
      vertex -6.000000e+001  1.630000e+002  8.100000e+001
      vertex -6.000000e+001  2.000000e+002  8.300000e+001
      vertex -6.000000e+001  1.921000e+002  8.000000e+001
    endloop
  endfacet
  facet normal -1.000000e+000  0.000000e+000  0.000000e+000
    outer loop
      vertex -6.000000e+001  1.630000e+002  8.100000e+001
      vertex -6.000000e+001  1.921000e+002  8.000000e+001
      vertex -6.000000e+001  1.679000e+002  8.000000e+001
    endloop
  endfacet
  facet normal -1.000000e+000  0.000000e+000  0.000000e+000
    outer loop
      vertex -6.000000e+001  1.630000e+002  8.100000e+001
      vertex -6.000000e+001  1.679000e+002  8.000000e+001
      vertex -6.000000e+001  1.600000e+002  8.100000e+001
    endloop
  endfacet
  facet normal -1.000000e+000  0.000000e+000  0.000000e+000
    outer loop
      vertex -6.000000e+001  1.921000e+002  8.000000e+001
      vertex -6.000000e+001  2.000000e+002  8.300000e+001
      vertex -6.000000e+001  1.921000e+002  6.510000e+001
    endloop
  endfacet
  facet normal -1.000000e+000  0.000000e+000  0.000000e+000
    outer loop
      vertex -6.000000e+001  1.921000e+002  6.510000e+001
      vertex -6.000000e+001  2.000000e+002  8.300000e+001
      vertex -6.000000e+001  2.000000e+002  6.510000e+001
    endloop
  endfacet
  facet normal -1.000000e+000  0.000000e+000  0.000000e+000
    outer loop
      vertex -6.000000e+001  1.600000e+002  6.555000e+001
      vertex -6.000000e+001  1.600000e+002  8.100000e+001
      vertex -6.000000e+001  1.615000e+002  6.405000e+001
    endloop
  endfacet
  facet normal -1.000000e+000  0.000000e+000  0.000000e+000
    outer loop
      vertex -6.000000e+001  1.615000e+002  6.405000e+001
      vertex -6.000000e+001  1.600000e+002  8.100000e+001
      vertex -6.000000e+001  1.679000e+002  8.000000e+001
    endloop
  endfacet
  facet normal -1.000000e+000  0.000000e+000  -0.000000e+000
    outer loop
      vertex -6.000000e+001  1.615000e+002  6.405000e+001
      vertex -6.000000e+001  1.679000e+002  8.000000e+001
      vertex -6.000000e+001  1.679000e+002  4.510000e+001
    endloop
  endfacet
  facet normal -9.999999e-001  0.000000e+000  0.000000e+000
    outer loop
      vertex -6.000000e+001  1.600000e+002  6.255000e+001
      vertex -6.000000e+001  1.615000e+002  6.405000e+001
      vertex -6.000000e+001  1.600000e+002  4.510000e+001
    endloop
  endfacet
  facet normal -1.000000e+000  0.000000e+000  0.000000e+000
    outer loop
      vertex -6.000000e+001  1.600000e+002  4.510000e+001
      vertex -6.000000e+001  1.615000e+002  6.405000e+001
      vertex -6.000000e+001  1.679000e+002  4.510000e+001
    endloop
  endfacet
  facet normal  0.000000e+000  0.000000e+000  1.000000e+000
    outer loop
      vertex  6.000000e+001  1.630000e+002  8.300000e+001
      vertex  6.000000e+001  2.000000e+002  8.300000e+001
      vertex -6.000000e+001  1.630000e+002  8.300000e+001
    endloop
  endfacet
  facet normal  0.000000e+000  0.000000e+000  1.000000e+000
    outer loop
      vertex -6.000000e+001  1.630000e+002  8.300000e+001
      vertex  6.000000e+001  2.000000e+002  8.300000e+001
      vertex  2.842171e-014  2.000000e+002  8.300000e+001
    endloop
  endfacet
  facet normal  0.000000e+000  0.000000e+000  1.000000e+000
    outer loop
      vertex -6.000000e+001  1.630000e+002  8.300000e+001
      vertex  2.842171e-014  2.000000e+002  8.300000e+001
      vertex -6.000000e+001  2.000000e+002  8.300000e+001
    endloop
  endfacet
  facet normal  0.000000e+000 -1.000000e+000  0.000000e+000
    outer loop
      vertex -6.000000e+001  1.630000e+002  8.100000e+001
      vertex  6.000000e+001  1.630000e+002  8.100000e+001
      vertex -6.000000e+001  1.630000e+002  8.300000e+001
    endloop
  endfacet
  facet normal  0.000000e+000 -1.000000e+000  0.000000e+000
    outer loop
      vertex -6.000000e+001  1.630000e+002  8.300000e+001
      vertex  6.000000e+001  1.630000e+002  8.100000e+001
      vertex  6.000000e+001  1.630000e+002  8.300000e+001
    endloop
  endfacet
  facet normal  0.000000e+000 -1.000000e+000  0.000000e+000
    outer loop
      vertex  5.330208e+001  1.921000e+002  6.510000e+001
      vertex  6.000000e+001  1.921000e+002  6.510000e+001
      vertex  5.330208e+001  1.921000e+002  8.000000e+001
    endloop
  endfacet
  facet normal  0.000000e+000 -1.000000e+000  0.000000e+000
    outer loop
      vertex  5.330208e+001  1.921000e+002  8.000000e+001
      vertex  6.000000e+001  1.921000e+002  6.510000e+001
      vertex  6.000000e+001  1.921000e+002  8.000000e+001
    endloop
  endfacet
  facet normal  0.000000e+000 -1.000000e+000  0.000000e+000
    outer loop
      vertex -6.000000e+001  1.921000e+002  6.510000e+001
      vertex -5.330208e+001  1.921000e+002  6.510000e+001
      vertex -6.000000e+001  1.921000e+002  8.000000e+001
    endloop
  endfacet
  facet normal  0.000000e+000 -1.000000e+000  0.000000e+000
    outer loop
      vertex -6.000000e+001  1.921000e+002  8.000000e+001
      vertex -5.330208e+001  1.921000e+002  6.510000e+001
      vertex -5.330208e+001  1.921000e+002  8.000000e+001
    endloop
  endfacet
  facet normal  7.071074e-001  7.071061e-001  -0.000000e+000
    outer loop
      vertex -5.330208e+001  1.931607e+002  8.000000e+001
      vertex -5.330208e+001  1.931607e+002  6.510000e+001
      vertex -5.724142e+001  1.971000e+002  8.000000e+001
    endloop
  endfacet
  facet normal  7.071074e-001  7.071061e-001  0.000000e+000
    outer loop
      vertex -5.724142e+001  1.971000e+002  8.000000e+001
      vertex -5.330208e+001  1.931607e+002  6.510000e+001
      vertex -5.724142e+001  1.971000e+002  6.510000e+001
    endloop
  endfacet
  facet normal  0.000000e+000 -1.000000e+000  0.000000e+000
    outer loop
      vertex  4.263256e-014  1.971000e+002  6.510000e+001
      vertex  5.724142e+001  1.971000e+002  6.510000e+001
      vertex  5.329071e-014  1.971000e+002  8.000000e+001
    endloop
  endfacet
  facet normal  0.000000e+000 -1.000000e+000  0.000000e+000
    outer loop
      vertex  5.329071e-014  1.971000e+002  8.000000e+001
      vertex  5.724142e+001  1.971000e+002  6.510000e+001
      vertex  5.724142e+001  1.971000e+002  8.000000e+001
    endloop
  endfacet
  facet normal  0.000000e+000 -1.000000e+000  0.000000e+000
    outer loop
      vertex -5.724142e+001  1.971000e+002  6.510000e+001
      vertex  4.263256e-014  1.971000e+002  6.510000e+001
      vertex -5.724142e+001  1.971000e+002  8.000000e+001
    endloop
  endfacet
  facet normal  0.000000e+000 -1.000000e+000  0.000000e+000
    outer loop
      vertex -5.724142e+001  1.971000e+002  8.000000e+001
      vertex  4.263256e-014  1.971000e+002  6.510000e+001
      vertex  5.329071e-014  1.971000e+002  8.000000e+001
    endloop
  endfacet
  facet normal -7.071074e-001  7.071061e-001  0.000000e+000
    outer loop
      vertex  5.330208e+001  1.931607e+002  8.000000e+001
      vertex  5.724142e+001  1.971000e+002  8.000000e+001
      vertex  5.330208e+001  1.931607e+002  6.510000e+001
    endloop
  endfacet
  facet normal -7.071074e-001  7.071061e-001  0.000000e+000
    outer loop
      vertex  5.330208e+001  1.931607e+002  6.510000e+001
      vertex  5.724142e+001  1.971000e+002  8.000000e+001
      vertex  5.724142e+001  1.971000e+002  6.510000e+001
    endloop
  endfacet
  facet normal -1.000000e+000  -0.000000e+000  0.000000e+000
    outer loop
      vertex  5.330208e+001  1.921000e+002  8.000000e+001
      vertex  5.330208e+001  1.931607e+002  8.000000e+001
      vertex  5.330208e+001  1.921000e+002  6.510000e+001
    endloop
  endfacet
  facet normal -1.000000e+000  0.000000e+000  0.000000e+000
    outer loop
      vertex  5.330208e+001  1.921000e+002  6.510000e+001
      vertex  5.330208e+001  1.931607e+002  8.000000e+001
      vertex  5.330208e+001  1.931607e+002  6.510000e+001
    endloop
  endfacet
  facet normal  1.000000e+000  0.000000e+000  0.000000e+000
    outer loop
      vertex -5.330208e+001  1.921000e+002  8.000000e+001
      vertex -5.330208e+001  1.921000e+002  6.510000e+001
      vertex -5.330208e+001  1.931607e+002  8.000000e+001
    endloop
  endfacet
  facet normal  1.000000e+000  0.000000e+000  0.000000e+000
    outer loop
      vertex -5.330208e+001  1.931607e+002  8.000000e+001
      vertex -5.330208e+001  1.921000e+002  6.510000e+001
      vertex -5.330208e+001  1.931607e+002  6.510000e+001
    endloop
  endfacet
  facet normal  0.000000e+000  1.000000e+000  0.000000e+000
    outer loop
      vertex  1.382100e-014  2.000000e+002  6.510000e+001
      vertex -6.000000e+001  2.000000e+002  6.510000e+001
      vertex  2.842171e-014  2.000000e+002  8.300000e+001
    endloop
  endfacet
  facet normal  0.000000e+000  1.000000e+000  0.000000e+000
    outer loop
      vertex  2.842171e-014  2.000000e+002  8.300000e+001
      vertex -6.000000e+001  2.000000e+002  6.510000e+001
      vertex -6.000000e+001  2.000000e+002  8.300000e+001
    endloop
  endfacet
  facet normal  0.000000e+000  1.000000e+000  0.000000e+000
    outer loop
      vertex  6.000000e+001  2.000000e+002  6.510000e+001
      vertex  1.382100e-014  2.000000e+002  6.510000e+001
      vertex  6.000000e+001  2.000000e+002  8.300000e+001
    endloop
  endfacet
  facet normal  0.000000e+000  1.000000e+000  0.000000e+000
    outer loop
      vertex  6.000000e+001  2.000000e+002  8.300000e+001
      vertex  1.382100e-014  2.000000e+002  6.510000e+001
      vertex  2.842171e-014  2.000000e+002  8.300000e+001
    endloop
  endfacet
  facet normal  0.000000e+000  0.000000e+000 -1.000000e+000
    outer loop
      vertex -5.330208e+001  1.931607e+002  6.510000e+001
      vertex -5.330208e+001  1.921000e+002  6.510000e+001
      vertex -5.724142e+001  1.971000e+002  6.510000e+001
    endloop
  endfacet
  facet normal  0.000000e+000  0.000000e+000 -9.999999e-001
    outer loop
      vertex  6.000000e+001  1.921000e+002  6.510000e+001
      vertex  5.724142e+001  1.971000e+002  6.510000e+001
      vertex  6.000000e+001  2.000000e+002  6.510000e+001
    endloop
  endfacet
  facet normal  0.000000e+000  0.000000e+000 -1.000000e+000
    outer loop
      vertex  6.000000e+001  2.000000e+002  6.510000e+001
      vertex  5.724142e+001  1.971000e+002  6.510000e+001
      vertex  4.263256e-014  1.971000e+002  6.510000e+001
    endloop
  endfacet
  facet normal  0.000000e+000  0.000000e+000 -1.000000e+000
    outer loop
      vertex  6.000000e+001  2.000000e+002  6.510000e+001
      vertex  4.263256e-014  1.971000e+002  6.510000e+001
      vertex  1.382100e-014  2.000000e+002  6.510000e+001
    endloop
  endfacet
  facet normal  0.000000e+000  -0.000000e+000 -1.000000e+000
    outer loop
      vertex  1.382100e-014  2.000000e+002  6.510000e+001
      vertex  4.263256e-014  1.971000e+002  6.510000e+001
      vertex -5.724142e+001  1.971000e+002  6.510000e+001
    endloop
  endfacet
  facet normal  0.000000e+000  0.000000e+000 -1.000000e+000
    outer loop
      vertex  1.382100e-014  2.000000e+002  6.510000e+001
      vertex -5.724142e+001  1.971000e+002  6.510000e+001
      vertex -6.000000e+001  2.000000e+002  6.510000e+001
    endloop
  endfacet
  facet normal  0.000000e+000  0.000000e+000 -1.000000e+000
    outer loop
      vertex -6.000000e+001  2.000000e+002  6.510000e+001
      vertex -5.724142e+001  1.971000e+002  6.510000e+001
      vertex -5.330208e+001  1.921000e+002  6.510000e+001
    endloop
  endfacet
  facet normal  0.000000e+000  0.000000e+000 -9.999999e-001
    outer loop
      vertex -6.000000e+001  2.000000e+002  6.510000e+001
      vertex -5.330208e+001  1.921000e+002  6.510000e+001
      vertex -6.000000e+001  1.921000e+002  6.510000e+001
    endloop
  endfacet
  facet normal  0.000000e+000  0.000000e+000 -1.000000e+000
    outer loop
      vertex  5.330208e+001  1.921000e+002  6.510000e+001
      vertex  5.330208e+001  1.931607e+002  6.510000e+001
      vertex  6.000000e+001  1.921000e+002  6.510000e+001
    endloop
  endfacet
  facet normal  0.000000e+000  0.000000e+000 -1.000000e+000
    outer loop
      vertex  6.000000e+001  1.921000e+002  6.510000e+001
      vertex  5.330208e+001  1.931607e+002  6.510000e+001
      vertex  5.724142e+001  1.971000e+002  6.510000e+001
    endloop
  endfacet
  facet normal  0.000000e+000  0.000000e+000 -1.000000e+000
    outer loop
      vertex  5.724142e+001  1.629000e+002  8.000000e+001
      vertex  4.973799e-014  1.629000e+002  8.000000e+001
      vertex  5.330208e+001  1.668393e+002  8.000000e+001
    endloop
  endfacet
  facet normal  -0.000000e+000  0.000000e+000 -1.000000e+000
    outer loop
      vertex -5.724142e+001  1.971000e+002  8.000000e+001
      vertex  5.329071e-014  1.971000e+002  8.000000e+001
      vertex -5.330208e+001  1.931607e+002  8.000000e+001
    endloop
  endfacet
  facet normal  0.000000e+000  0.000000e+000 -1.000000e+000
    outer loop
      vertex -6.000000e+001  1.679000e+002  8.000000e+001
      vertex -6.000000e+001  1.921000e+002  8.000000e+001
      vertex -5.330208e+001  1.921000e+002  8.000000e+001
    endloop
  endfacet
  facet normal  0.000000e+000  -0.000000e+000 -1.000000e+000
    outer loop
      vertex -6.000000e+001  1.679000e+002  8.000000e+001
      vertex -5.330208e+001  1.921000e+002  8.000000e+001
      vertex  5.330208e+001  1.921000e+002  8.000000e+001
    endloop
  endfacet
  facet normal  0.000000e+000  -0.000000e+000 -1.000000e+000
    outer loop
      vertex -6.000000e+001  1.679000e+002  8.000000e+001
      vertex  5.330208e+001  1.921000e+002  8.000000e+001
      vertex  6.000000e+001  1.921000e+002  8.000000e+001
    endloop
  endfacet
  facet normal  0.000000e+000  0.000000e+000 -1.000000e+000
    outer loop
      vertex  6.000000e+001  1.921000e+002  8.000000e+001
      vertex  6.000000e+001  1.679000e+002  8.000000e+001
      vertex  5.330208e+001  1.679000e+002  8.000000e+001
    endloop
  endfacet
  facet normal  0.000000e+000  0.000000e+000 -1.000000e+000
    outer loop
      vertex  6.000000e+001  1.921000e+002  8.000000e+001
      vertex  5.330208e+001  1.679000e+002  8.000000e+001
      vertex -5.330208e+001  1.679000e+002  8.000000e+001
    endloop
  endfacet
  facet normal  0.000000e+000  0.000000e+000 -1.000000e+000
    outer loop
      vertex  6.000000e+001  1.921000e+002  8.000000e+001
      vertex -5.330208e+001  1.679000e+002  8.000000e+001
      vertex -6.000000e+001  1.679000e+002  8.000000e+001
    endloop
  endfacet
  facet normal  0.000000e+000  -0.000000e+000 -1.000000e+000
    outer loop
      vertex -5.724142e+001  1.629000e+002  8.000000e+001
      vertex -5.330208e+001  1.668393e+002  8.000000e+001
      vertex  4.973799e-014  1.629000e+002  8.000000e+001
    endloop
  endfacet
  facet normal  0.000000e+000  0.000000e+000 -1.000000e+000
    outer loop
      vertex  4.973799e-014  1.629000e+002  8.000000e+001
      vertex -5.330208e+001  1.668393e+002  8.000000e+001
      vertex  5.330208e+001  1.668393e+002  8.000000e+001
    endloop
  endfacet
  facet normal  0.000000e+000  0.000000e+000 -1.000000e+000
    outer loop
      vertex -5.330208e+001  1.668393e+002  8.000000e+001
      vertex -5.330208e+001  1.679000e+002  8.000000e+001
      vertex  5.330208e+001  1.668393e+002  8.000000e+001
    endloop
  endfacet
  facet normal  0.000000e+000  0.000000e+000 -1.000000e+000
    outer loop
      vertex  5.330208e+001  1.668393e+002  8.000000e+001
      vertex -5.330208e+001  1.679000e+002  8.000000e+001
      vertex  5.330208e+001  1.679000e+002  8.000000e+001
    endloop
  endfacet
  facet normal  0.000000e+000  0.000000e+000 -1.000000e+000
    outer loop
      vertex -5.330208e+001  1.921000e+002  8.000000e+001
      vertex -5.330208e+001  1.931607e+002  8.000000e+001
      vertex  5.330208e+001  1.921000e+002  8.000000e+001
    endloop
  endfacet
  facet normal  0.000000e+000  0.000000e+000 -1.000000e+000
    outer loop
      vertex  5.330208e+001  1.921000e+002  8.000000e+001
      vertex -5.330208e+001  1.931607e+002  8.000000e+001
      vertex  5.330208e+001  1.931607e+002  8.000000e+001
    endloop
  endfacet
  facet normal  0.000000e+000  -0.000000e+000 -1.000000e+000
    outer loop
      vertex -5.330208e+001  1.931607e+002  8.000000e+001
      vertex  5.329071e-014  1.971000e+002  8.000000e+001
      vertex  5.330208e+001  1.931607e+002  8.000000e+001
    endloop
  endfacet
  facet normal  0.000000e+000  0.000000e+000 -1.000000e+000
    outer loop
      vertex  5.330208e+001  1.931607e+002  8.000000e+001
      vertex  5.329071e-014  1.971000e+002  8.000000e+001
      vertex  5.724142e+001  1.971000e+002  8.000000e+001
    endloop
  endfacet
  facet normal -1.000000e+000  0.000000e+000  0.000000e+000
    outer loop
      vertex  5.330208e+001  1.679000e+002  8.000000e+001
      vertex  5.330208e+001  1.679000e+002  4.510000e+001
      vertex  5.330208e+001  1.668393e+002  8.000000e+001
    endloop
  endfacet
  facet normal -1.000000e+000  0.000000e+000  0.000000e+000
    outer loop
      vertex  5.330208e+001  1.668393e+002  8.000000e+001
      vertex  5.330208e+001  1.679000e+002  4.510000e+001
      vertex  5.330208e+001  1.668393e+002  4.510000e+001
    endloop
  endfacet
  facet normal  0.000000e+000  9.999999e-001  0.000000e+000
    outer loop
      vertex  6.000000e+001  1.679000e+002  4.510000e+001
      vertex  5.330208e+001  1.679000e+002  4.510000e+001
      vertex  6.000000e+001  1.679000e+002  8.000000e+001
    endloop
  endfacet
  facet normal  0.000000e+000  9.999999e-001  0.000000e+000
    outer loop
      vertex  6.000000e+001  1.679000e+002  8.000000e+001
      vertex  5.330208e+001  1.679000e+002  4.510000e+001
      vertex  5.330208e+001  1.679000e+002  8.000000e+001
    endloop
  endfacet
  facet normal -7.071074e-001 -7.071061e-001  0.000000e+000
    outer loop
      vertex  5.330208e+001  1.668393e+002  8.000000e+001
      vertex  5.330208e+001  1.668393e+002  4.510000e+001
      vertex  5.724142e+001  1.629000e+002  8.000000e+001
    endloop
  endfacet
  facet normal -7.071074e-001 -7.071061e-001  -0.000000e+000
    outer loop
      vertex  5.724142e+001  1.629000e+002  8.000000e+001
      vertex  5.330208e+001  1.668393e+002  4.510000e+001
      vertex  5.724142e+001  1.629000e+002  4.510000e+001
    endloop
  endfacet
  facet normal  1.000000e+000  -0.000000e+000  0.000000e+000
    outer loop
      vertex -5.330208e+001  1.679000e+002  8.000000e+001
      vertex -5.330208e+001  1.668393e+002  8.000000e+001
      vertex -5.330208e+001  1.679000e+002  4.510000e+001
    endloop
  endfacet
  facet normal  1.000000e+000  0.000000e+000  0.000000e+000
    outer loop
      vertex -5.330208e+001  1.679000e+002  4.510000e+001
      vertex -5.330208e+001  1.668393e+002  8.000000e+001
      vertex -5.330208e+001  1.668393e+002  4.510000e+001
    endloop
  endfacet
  facet normal  0.000000e+000  9.999999e-001  0.000000e+000
    outer loop
      vertex -5.330208e+001  1.679000e+002  4.510000e+001
      vertex -6.000000e+001  1.679000e+002  4.510000e+001
      vertex -5.330208e+001  1.679000e+002  8.000000e+001
    endloop
  endfacet
  facet normal  0.000000e+000  9.999999e-001  0.000000e+000
    outer loop
      vertex -5.330208e+001  1.679000e+002  8.000000e+001
      vertex -6.000000e+001  1.679000e+002  4.510000e+001
      vertex -6.000000e+001  1.679000e+002  8.000000e+001
    endloop
  endfacet
  facet normal  7.071074e-001 -7.071061e-001  0.000000e+000
    outer loop
      vertex -5.330208e+001  1.668393e+002  8.000000e+001
      vertex -5.724142e+001  1.629000e+002  8.000000e+001
      vertex -5.330208e+001  1.668393e+002  4.510000e+001
    endloop
  endfacet
  facet normal  7.071074e-001 -7.071061e-001  0.000000e+000
    outer loop
      vertex -5.330208e+001  1.668393e+002  4.510000e+001
      vertex -5.724142e+001  1.629000e+002  8.000000e+001
      vertex -5.724142e+001  1.629000e+002  4.510000e+001
    endloop
  endfacet
  facet normal  0.000000e+000  1.000000e+000  0.000000e+000
    outer loop
      vertex  4.973799e-014  1.629000e+002  4.510000e+001
      vertex -5.724142e+001  1.629000e+002  4.510000e+001
      vertex  4.973799e-014  1.629000e+002  8.000000e+001
    endloop
  endfacet
  facet normal  0.000000e+000  1.000000e+000  0.000000e+000
    outer loop
      vertex  4.973799e-014  1.629000e+002  8.000000e+001
      vertex -5.724142e+001  1.629000e+002  4.510000e+001
      vertex -5.724142e+001  1.629000e+002  8.000000e+001
    endloop
  endfacet
  facet normal  0.000000e+000  1.000000e+000  0.000000e+000
    outer loop
      vertex  5.724142e+001  1.629000e+002  4.510000e+001
      vertex  4.973799e-014  1.629000e+002  4.510000e+001
      vertex  5.724142e+001  1.629000e+002  8.000000e+001
    endloop
  endfacet
  facet normal  0.000000e+000  1.000000e+000  0.000000e+000
    outer loop
      vertex  5.724142e+001  1.629000e+002  8.000000e+001
      vertex  4.973799e-014  1.629000e+002  4.510000e+001
      vertex  4.973799e-014  1.629000e+002  8.000000e+001
    endloop
  endfacet
endsolid xxx STL
